<svg width="341" height="412" viewBox="0 0 341 412" fill="none" xmlns="http://www.w3.org/2000/svg">
<path fill-rule="evenodd" clip-rule="evenodd" d="M8 0C3.58172 0 0 3.58172 0 8V404C0 408.418 3.58171 412 7.99999 412H333C337.418 412 341 408.418 341 404V8C341 3.58172 337.418 0 333 0H8ZM26 33C19.3726 33 14 38.3726 14 45V366C14 372.627 19.3726 378 26 378H312C318.627 378 324 372.627 324 366V45C324 38.3726 318.627 33 312 33H26Z" fill="#001A47" fill-opacity="0.05"/>
<rect x="14.75" y="33.75" width="308.5" height="343.5" rx="7.25" stroke="white" stroke-opacity="0.6" stroke-width="1.5"/>
<path fill-rule="evenodd" clip-rule="evenodd" d="M37.3082 33H22C17.5817 33 14 36.5817 14 41V49H17.5V41C17.5 38.5147 19.5147 36.5 22 36.5H37.3082V33ZM37.3082 374.5H22C19.5147 374.5 17.5 372.485 17.5 370V361H14V370C14 374.418 17.5817 378 22 378H37.3082V374.5ZM306.519 378V374.5H316C318.485 374.5 320.5 372.485 320.5 370V361H324V370C324 374.418 320.418 378 316 378H306.519ZM306.519 36.5V33H316C320.418 33 324 36.5817 324 41V49H320.5V41C320.5 38.5147 318.485 36.5 316 36.5H306.519Z" fill="white"/>
</svg>
