<svg width="61" height="16" viewBox="0 0 61 16" fill="none" xmlns="http://www.w3.org/2000/svg">
<path d="M2.73796 12.2215L2.74506 8.59693H3.18483L6.67468 4.46161H10.1432L5.45465 9.93754H4.73824L2.73796 12.2215ZM0 15.3567V0.829902H3.02169V15.3567H0ZM6.80945 15.3567L3.60333 10.6114L5.61779 8.47634L10.3489 15.3567H6.80945Z" fill="#1C1E28"/>
<path d="M12.7762 15.3567L9.81128 4.46161H12.8684L14.5566 11.7818H14.6559L16.415 4.46161H19.4154L21.2029 11.7392H21.2951L22.9549 4.46161H26.005L23.0471 15.3567H19.8481L17.9755 8.50471H17.8408L15.9682 15.3567H12.7762Z" fill="#1C1E28"/>
<path d="M29.725 15.5624C29.0299 15.5624 28.4104 15.4418 27.8666 15.2007C27.3228 14.9548 26.8925 14.593 26.5756 14.1154C26.2635 13.6331 26.1075 13.0325 26.1075 12.3137C26.1075 11.7085 26.2186 11.2001 26.4409 10.7887C26.6631 10.3773 26.9658 10.0463 27.3488 9.79567C27.7318 9.54505 28.1669 9.3559 28.6539 9.22822C29.1457 9.10054 29.6612 9.01069 30.2003 8.95868C30.8339 8.89248 31.3446 8.831 31.7324 8.77425C32.1201 8.71278 32.4015 8.62293 32.5765 8.50471C32.7514 8.38649 32.8389 8.21153 32.8389 7.97982V7.93726C32.8389 7.48803 32.697 7.14046 32.4133 6.89456C32.1343 6.64867 31.7371 6.52572 31.2217 6.52572C30.6779 6.52572 30.2452 6.6463 29.9236 6.88747C29.6021 7.12391 29.3893 7.42182 29.2852 7.78121L26.4905 7.55423C26.6324 6.8922 26.9114 6.32002 27.3275 5.83768C27.7436 5.35062 28.2804 4.97704 28.9377 4.71696C29.5997 4.45215 30.3658 4.31974 31.2359 4.31974C31.8411 4.31974 32.4204 4.39067 32.9737 4.53254C33.5317 4.6744 34.0258 4.89429 34.4562 5.1922C34.8912 5.49012 35.234 5.87315 35.4847 6.3413C35.7353 6.80472 35.8606 7.36035 35.8606 8.00819V15.3567H32.995V13.8459H32.9098C32.7349 14.1863 32.5008 14.4866 32.2076 14.7467C31.9144 15.0021 31.5621 15.203 31.1507 15.3496C30.7393 15.4915 30.2641 15.5624 29.725 15.5624ZM30.5904 13.477C31.0349 13.477 31.4274 13.3895 31.7678 13.2146C32.1083 13.0349 32.3755 12.7937 32.5694 12.4911C32.7632 12.1884 32.8602 11.8456 32.8602 11.4626V10.3064C32.7656 10.3679 32.6356 10.4246 32.4701 10.4766C32.3093 10.5239 32.1272 10.5688 31.9239 10.6114C31.7206 10.6492 31.5172 10.6847 31.3139 10.7178C31.1105 10.7462 30.9261 10.7722 30.7606 10.7958C30.406 10.8478 30.0962 10.9306 29.8314 11.0441C29.5666 11.1576 29.3609 11.3112 29.2143 11.5051C29.0677 11.6943 28.9944 11.9307 28.9944 12.2144C28.9944 12.6258 29.1434 12.9403 29.4413 13.1578C29.7439 13.3706 30.127 13.477 30.5904 13.477Z" fill="#1C1E28"/>
<path d="M37.2062 15.3567V4.46161H40.2279V15.3567H37.2062ZM38.7241 3.05716C38.2749 3.05716 37.8895 2.9082 37.5679 2.61029C37.2511 2.30765 37.0927 1.94589 37.0927 1.52503C37.0927 1.1089 37.2511 0.751877 37.5679 0.453964C37.8895 0.151321 38.2749 0 38.7241 0C39.1734 0 39.5564 0.151321 39.8732 0.453964C40.1948 0.751877 40.3555 1.1089 40.3555 1.52503C40.3555 1.94589 40.1948 2.30765 39.8732 2.61029C39.5564 2.9082 39.1734 3.05716 38.7241 3.05716Z" fill="#1C1E28"/>
<path d="M46.5724 15.5695C45.4564 15.5695 44.4964 15.3331 43.6925 14.8602C42.8934 14.3826 42.2786 13.7206 41.8483 12.8741C41.4227 12.0277 41.2099 11.0535 41.2099 9.95172C41.2099 8.83573 41.4251 7.85687 41.8554 7.01515C42.2904 6.1687 42.9076 5.50903 43.7067 5.03615C44.5059 4.55855 45.4564 4.31974 46.5582 4.31974C47.5087 4.31974 48.3409 4.49234 49.055 4.83754C49.769 5.18274 50.3341 5.66745 50.7502 6.29164C51.1664 6.91584 51.3957 7.6488 51.4383 8.49053H48.5868C48.5064 7.94672 48.2936 7.50931 47.9484 7.17829C47.608 6.84255 47.1611 6.67468 46.6078 6.67468C46.1397 6.67468 45.7306 6.80235 45.3807 7.05771C45.0355 7.30833 44.766 7.67481 44.5721 8.15715C44.3782 8.63948 44.2813 9.22349 44.2813 9.90916C44.2813 10.6043 44.3758 11.1954 44.565 11.6825C44.7589 12.1695 45.0308 12.5407 45.3807 12.7961C45.7306 13.0514 46.1397 13.1791 46.6078 13.1791C46.953 13.1791 47.2628 13.1082 47.537 12.9663C47.816 12.8245 48.0454 12.6188 48.2251 12.3492C48.4095 12.0749 48.5301 11.7463 48.5868 11.3633H51.4383C51.391 12.1955 51.164 12.9285 50.7573 13.5621C50.3554 14.1911 49.7998 14.6829 49.0904 15.0375C48.3811 15.3922 47.5418 15.5695 46.5724 15.5695Z" fill="#1C1E28"/>
<path d="M52.3742 15.3567V4.46161H55.3959V15.3567H52.3742ZM53.8922 3.05716C53.4429 3.05716 53.0575 2.9082 52.736 2.61029C52.4191 2.30765 52.2607 1.94589 52.2607 1.52503C52.2607 1.1089 52.4191 0.751877 52.736 0.453964C53.0575 0.151321 53.4429 0 53.8922 0C54.3414 0 54.7244 0.151321 55.0413 0.453964C55.3628 0.751877 55.5236 1.1089 55.5236 1.52503C55.5236 1.94589 55.3628 2.30765 55.0413 2.61029C54.7244 2.9082 54.3414 3.05716 53.8922 3.05716Z" fill="#1C1E28"/>
<path d="M58.4153 15.4869C57.7045 15.4869 57.0942 15.2357 56.5844 14.7331C56.0818 14.2233 55.8305 13.613 55.8305 12.9022C55.8305 12.1986 56.0818 11.5955 56.5844 11.0929C57.0942 10.5903 57.7045 10.339 58.4153 10.339C59.1045 10.339 59.7076 10.5903 60.2246 11.0929C60.7415 11.5955 61 12.1986 61 12.9022C61 13.3761 60.878 13.8105 60.6338 14.2053C60.3969 14.5931 60.0846 14.9054 59.6969 15.1423C59.3092 15.3721 58.882 15.4869 58.4153 15.4869Z" fill="#0A20E6"/>
</svg>
