<svg width="34" height="13" viewBox="0 0 34 13" fill="none" xmlns="http://www.w3.org/2000/svg">
<rect x="0.303571" y="0.303571" width="33.3929" height="11.5357" rx="5.76786" fill="white"/>
<rect x="0.303571" y="0.303571" width="33.3929" height="11.5357" rx="5.76786" stroke="white" stroke-width="0.607143"/>
<circle cx="6.67854" cy="6.07142" r="3.03571" fill="#DA1028"/>
<path d="M13.6218 3.49594C14.3795 3.49594 14.96 3.63194 15.3631 3.90394C15.7663 4.17108 15.9678 4.5888 15.9678 5.15708C15.9678 5.51165 15.8853 5.80065 15.7201 6.02408C15.5598 6.24265 15.3267 6.41508 15.0207 6.54137C15.1227 6.66765 15.2295 6.81337 15.3413 6.97851C15.453 7.1388 15.5623 7.3088 15.6691 7.48851C15.7808 7.66337 15.8877 7.84794 15.9897 8.04222C16.0917 8.23165 16.1864 8.41865 16.2738 8.60322H14.9988C14.9065 8.43808 14.8118 8.27051 14.7147 8.10051C14.6224 7.93051 14.5253 7.76537 14.4233 7.60508C14.3261 7.4448 14.229 7.29422 14.1318 7.15337C14.0347 7.00765 13.9375 6.87651 13.8404 6.75994H13.2794V8.60322H12.1428V3.62708C12.3905 3.57851 12.6455 3.54451 12.9078 3.52508C13.175 3.50565 13.413 3.49594 13.6218 3.49594ZM13.6874 4.46494C13.6048 4.46494 13.5295 4.46737 13.4615 4.47222C13.3984 4.47708 13.3377 4.48194 13.2794 4.4868V5.85651H13.6C14.0274 5.85651 14.3334 5.80308 14.518 5.69622C14.7025 5.58937 14.7948 5.40722 14.7948 5.1498C14.7948 4.90208 14.7001 4.72722 14.5107 4.62522C14.3261 4.51837 14.0517 4.46494 13.6874 4.46494Z" fill="#232121"/>
<path d="M16.8566 8.60322V3.55422H20.2663V4.50865H17.9932V5.49951H20.0113V6.43208H17.9932V7.6488H20.4339V8.60322H16.8566Z" fill="#232121"/>
<path d="M23.4316 8.70522C22.6107 8.70522 21.9842 8.47694 21.5519 8.02037C21.1244 7.5638 20.9107 6.91537 20.9107 6.07508C20.9107 5.65737 20.9763 5.2858 21.1074 4.96037C21.2386 4.63008 21.4183 4.35322 21.6466 4.1298C21.8749 3.90151 22.1469 3.72908 22.4626 3.61251C22.7783 3.49594 23.1207 3.43765 23.4899 3.43765C23.7036 3.43765 23.8979 3.45465 24.0727 3.48865C24.2476 3.5178 24.4006 3.55422 24.5317 3.59794C24.6629 3.6368 24.7722 3.67808 24.8596 3.7218C24.947 3.76551 25.0102 3.79951 25.049 3.8238L24.7212 4.7418C24.5657 4.65922 24.3836 4.5888 24.1747 4.53051C23.9707 4.47222 23.7376 4.44308 23.4753 4.44308C23.3004 4.44308 23.128 4.47222 22.958 4.53051C22.7929 4.5888 22.6447 4.68351 22.5136 4.81465C22.3873 4.94094 22.2853 5.10608 22.2076 5.31008C22.1299 5.51408 22.091 5.7618 22.091 6.05322C22.091 6.28637 22.1153 6.50494 22.1639 6.70894C22.2173 6.90808 22.2999 7.08051 22.4116 7.22622C22.5282 7.37194 22.6787 7.48851 22.8633 7.57594C23.0479 7.65851 23.2713 7.6998 23.5336 7.6998C23.6987 7.6998 23.8469 7.69008 23.978 7.67065C24.1092 7.65122 24.2257 7.62937 24.3277 7.60508C24.4297 7.57594 24.5196 7.54437 24.5973 7.51037C24.675 7.47637 24.7454 7.4448 24.8086 7.41565L25.1219 8.32637C24.9616 8.42351 24.7357 8.51094 24.4443 8.58865C24.1529 8.66637 23.8153 8.70522 23.4316 8.70522Z" fill="#232121"/>
</svg>
